# xmcd CD database file generated by Grip 3.2.0
# 
# Track frame offsets:
#       150
#       17972
#       31107
#       49080
#       69227
#       83020
#       94285
#       118110
#       137797
#       159370
#       175050
#       189712
# 
# Disc length: 2797 seconds
# 
# Revision: 1
# Processed by: cddbd v1.5.2PL0 Copyright (c) Steve Scherf et al.
# Submitted via: Grip 3.2.0
# 
DISCID=980aeb0c
DTITLE=Steve Hackett - Blues With A Feeling
DYEAR=1994
DGENRE=Blues
TTITLE0=Born In Chicago
TTITLE1=The Stumble
TTITLE2=Love Of Another Kind
TTITLE3=Way Down South
TTITLE4=A Blue Part Of Town
TTITLE5=Footloose
TTITLE6=Tombstone Roller
TTITLE7=Blues With A Feeling
TTITLE8=Big Dallas Sky
TTITLE9=The 13th Floor
TTITLE10=So Many Roads
TTITLE11=Solid Ground
EXTD=
EXTT0=
EXTT1=
EXTT2=
EXTT3=
EXTT4=
EXTT5=
EXTT6=
EXTT7=
EXTT8=
EXTT9=
EXTT10=
EXTT11=
PLAYORDER=
